<svg width="12" height="12" viewBox="0 0 12 12" fill="none" xmlns="http://www.w3.org/2000/svg">
<g clip-path="url(#clip0_158_85)">
<path fill-rule="evenodd" clip-rule="evenodd" d="M11.7815 0.223867C12.08 0.522357 12.08 1.00631 11.7815 1.3048L1.3048 11.7815C1.00631 12.08 0.522357 12.08 0.223867 11.7815C-0.0746225 11.483 -0.0746225 10.999 0.223867 10.7006L10.7006 0.223867C10.999 -0.0746225 11.483 -0.0746225 11.7815 0.223867Z" fill="#949494"/>
<path fill-rule="evenodd" clip-rule="evenodd" d="M0.223867 0.223867C0.522357 -0.0746225 1.00631 -0.0746225 1.3048 0.223867L11.7815 10.7006C12.08 10.999 12.08 11.483 11.7815 11.7815C11.483 12.08 10.999 12.08 10.7006 11.7815L0.223867 1.3048C-0.0746225 1.00631 -0.0746225 0.522357 0.223867 0.223867Z" fill="#949494"/>
</g>
<defs>
<clipPath id="clip0_158_85">
<rect width="12" height="12" fill="white"/>
</clipPath>
</defs>
</svg>
