<svg width="18" height="19" viewBox="0 0 18 19" fill="none" xmlns="http://www.w3.org/2000/svg">
<path d="M17.6425 9.44461C16.9363 7.9568 16.0959 6.7434 15.1213 5.80443L14.0992 6.82657C14.9327 7.62311 15.6587 8.66514 16.2865 9.96291C14.6151 13.4223 12.2425 15.0656 9.00011 15.0656C8.02685 15.0656 7.1304 14.9157 6.31076 14.616L5.20324 15.7235C6.34163 16.2492 7.60725 16.512 9.00011 16.512C12.8613 16.512 15.7421 14.5011 17.6425 10.4792C17.7189 10.3175 17.7586 10.1408 17.7586 9.96191C17.7586 9.78302 17.7189 9.60636 17.6425 9.44461ZM16.3654 3.00318L15.509 2.14577C15.4941 2.13083 15.4764 2.11897 15.4569 2.11088C15.4374 2.1028 15.4165 2.09863 15.3953 2.09863C15.3742 2.09863 15.3533 2.1028 15.3338 2.11088C15.3143 2.11897 15.2966 2.13083 15.2816 2.14577L13.0845 4.34193C11.8731 3.72318 10.5116 3.4138 9.00011 3.4138C5.13895 3.4138 2.25815 5.42474 0.357702 9.44662C0.281313 9.60837 0.241695 9.78503 0.241695 9.96392C0.241695 10.1428 0.281313 10.3195 0.357702 10.4812C1.11694 12.0803 2.03101 13.3621 3.09989 14.3265L0.974041 16.4518C0.943924 16.4819 0.927006 16.5228 0.927006 16.5654C0.927006 16.608 0.943924 16.6488 0.974041 16.679L1.83165 17.5366C1.86179 17.5667 1.90265 17.5836 1.94526 17.5836C1.98786 17.5836 2.02873 17.5667 2.05886 17.5366L16.3654 3.23059C16.3804 3.21566 16.3922 3.19794 16.4003 3.17843C16.4084 3.15892 16.4126 3.138 16.4126 3.11688C16.4126 3.09576 16.4084 3.07485 16.4003 3.05534C16.3922 3.03583 16.3804 3.0181 16.3654 3.00318ZM1.71373 9.96291C3.38717 6.50354 5.75971 4.86023 9.00011 4.86023C10.0958 4.86023 11.092 5.04827 11.9958 5.43057L10.5836 6.84284C9.91471 6.48598 9.14889 6.35354 8.39905 6.46506C7.64921 6.57657 6.95507 6.92613 6.41902 7.46218C5.88298 7.99823 5.53341 8.69237 5.4219 9.44221C5.31039 10.192 5.44283 10.9579 5.79969 11.6267L4.12384 13.3026C3.19632 12.4839 2.39676 11.3748 1.71373 9.96291ZM6.66975 9.96291C6.67011 9.60867 6.75401 9.2595 6.91466 8.94378C7.07531 8.62805 7.30817 8.35468 7.59433 8.14585C7.88048 7.93703 8.21186 7.79866 8.56154 7.74197C8.91122 7.68527 9.26934 7.71187 9.60681 7.81959L6.77643 10.65C6.70549 10.4279 6.6695 10.1961 6.66975 9.96291Z" fill="#94A0B8"/>
<path d="M8.92009 12.2162C8.85058 12.2162 8.78208 12.213 8.71418 12.2068L7.65306 13.2679C8.29128 13.5123 8.98663 13.5667 9.65506 13.4243C10.3235 13.282 10.9364 12.949 11.4196 12.4658C11.9029 11.9825 12.2358 11.3696 12.3781 10.7012C12.5205 10.0328 12.4662 9.33744 12.2218 8.69922L11.1607 9.76033C11.1669 9.82824 11.1701 9.89674 11.1701 9.96625C11.1703 10.2618 11.1122 10.5544 10.9991 10.8275C10.8861 11.1005 10.7204 11.3486 10.5114 11.5576C10.3025 11.7666 10.0544 11.9323 9.78132 12.0453C9.50826 12.1583 9.21561 12.2164 8.92009 12.2162Z" fill="#94A0B8"/>
</svg>
