<svg width="18" height="19" viewBox="0 0 18 19" fill="none" xmlns="http://www.w3.org/2000/svg">
<path d="M17.6425 9.4478C15.7381 5.43597 12.8593 3.41699 9.00012 3.41699C5.13896 3.41699 2.26217 5.43597 0.357705 9.4498C0.281317 9.61156 0.241699 9.78822 0.241699 9.9671C0.241699 10.146 0.281317 10.3227 0.357705 10.4844C2.26217 14.4962 5.14096 16.5152 9.00012 16.5152C12.8613 16.5152 15.7381 14.4962 17.6425 10.4824C17.7972 10.1569 17.7972 9.77927 17.6425 9.4478ZM9.00012 15.0688C5.75971 15.0688 3.38717 13.4255 1.71373 9.9661C3.38717 6.50672 5.75971 4.86342 9.00012 4.86342C12.2405 4.86342 14.6131 6.50672 16.2865 9.9661C14.6151 13.4255 12.2425 15.0688 9.00012 15.0688ZM8.91976 6.43039C6.96708 6.43039 5.38404 8.01342 5.38404 9.9661C5.38404 11.9188 6.96708 13.5018 8.91976 13.5018C10.8724 13.5018 12.4555 11.9188 12.4555 9.9661C12.4555 8.01342 10.8724 6.43039 8.91976 6.43039ZM8.91976 12.2161C7.67623 12.2161 6.66976 11.2096 6.66976 9.9661C6.66976 8.72257 7.67623 7.7161 8.91976 7.7161C10.1633 7.7161 11.1698 8.72257 11.1698 9.9661C11.1698 11.2096 10.1633 12.2161 8.91976 12.2161Z" fill="#94A0B8"/>
</svg>
