<svg width="30" height="30" viewBox="0 0 30 30" fill="none" xmlns="http://www.w3.org/2000/svg">
<g clip-path="url(#clip0_156_98)">
<path fill-rule="evenodd" clip-rule="evenodd" d="M26.256 15C26.256 21.6274 21.05 27 14.628 27C8.20603 27 3 21.6274 3 15C3 8.37258 8.20603 3 14.628 3C21.05 3 26.256 8.37258 26.256 15ZM15.3155 15.7383C15.2958 15.8692 15.119 16 14.9423 16H14.3137C14.137 16 13.9602 15.8692 13.9405 15.7383L13.1745 11.1752V9.31075C13.1745 9.1472 13.3513 9 13.5477 9H15.7083C15.9047 9 16.0815 9.1472 16.0815 9.31075V11.1425L15.3155 15.7383ZM16.0815 19.5091C16.0815 20.3273 15.4257 21 14.6103 21C13.8303 21 13.1745 20.3273 13.1745 19.5091C13.1745 18.6909 13.8303 18 14.6103 18C15.4257 18 16.0815 18.6909 16.0815 19.5091Z" fill="white"/>
<path fill-rule="evenodd" clip-rule="evenodd" d="M26.256 15C26.256 21.6274 21.05 27 14.628 27C8.20603 27 3 21.6274 3 15C3 8.37258 8.20603 3 14.628 3C21.05 3 26.256 8.37258 26.256 15ZM15.3155 15.7383C15.2958 15.8692 15.119 16 14.9423 16H14.3137C14.137 16 13.9602 15.8692 13.9405 15.7383L13.1745 11.1752V9.31075C13.1745 9.1472 13.3513 9 13.5477 9H15.7083C15.9047 9 16.0815 9.1472 16.0815 9.31075V11.1425L15.3155 15.7383ZM16.0815 19.5091C16.0815 20.3273 15.4257 21 14.6103 21C13.8303 21 13.1745 20.3273 13.1745 19.5091C13.1745 18.6909 13.8303 18 14.6103 18C15.4257 18 16.0815 18.6909 16.0815 19.5091Z" fill="#C7422E"/>
</g>
<defs>
<clipPath id="clip0_156_98">
<rect width="24" height="24" fill="white" transform="translate(3 3)"/>
</clipPath>
</defs>
</svg>
