<svg width="30" height="30" viewBox="0 0 30 30" fill="none" xmlns="http://www.w3.org/2000/svg">
<path fill-rule="evenodd" clip-rule="evenodd" d="M27 15C27 21.6274 21.6274 27 15 27C8.37258 27 3 21.6274 3 15C3 8.37258 8.37258 3 15 3C21.6274 3 27 8.37258 27 15ZM21.2127 11.7015C21.6001 11.3079 21.5951 10.6748 21.2015 10.2873C20.8079 9.89991 20.1748 9.9049 19.7873 10.2985L12.6268 17.5727L10.2144 15.1098C9.82794 14.7152 9.19481 14.7087 8.80026 15.0951C8.40571 15.4816 8.39915 16.1147 8.7856 16.5093L11.9106 19.6997C12.0984 19.8915 12.3554 19.9997 12.6238 20C12.8921 20.0003 13.1494 19.8928 13.3377 19.7015L21.2127 11.7015Z" fill="#7CB969"/>
</svg>
