<svg width="30" height="30" viewBox="0 0 30 30" fill="none" xmlns="http://www.w3.org/2000/svg">
<path d="M5.23201 26H24.768C26.4251 26 27.5029 24.4011 26.7618 23.0421L16.9938 5.12982C16.1723 3.62339 13.8277 3.62339 13.0062 5.12982L3.23821 23.0421C2.49714 24.4011 3.57491 26 5.23201 26Z" fill="#FDC571"/>
<path d="M15.3243 17C15.5068 17 15.6892 16.8692 15.7095 16.7383L16.5 12.1425V10.3107C16.5 10.1472 16.3176 10 16.1149 10H13.8851C13.6824 10 13.5 10.1472 13.5 10.3107V12.1752L14.2905 16.7383C14.3108 16.8692 14.4932 17 14.6757 17H15.3243ZM14.9817 22C15.8232 22 16.5 21.3273 16.5 20.5091C16.5 19.6909 15.8232 19 14.9817 19C14.1768 19 13.5 19.6909 13.5 20.5091C13.5 21.3273 14.1768 22 14.9817 22Z" fill="white"/>
</svg>
